<?xml version="1.0" encoding="utf-8"?>
<!-- Generator: Adobe Illustrator 23.0.3, SVG Export Plug-In . SVG Version: 6.00 Build 0)  -->
<svg version="1.1" id="レイヤー_1" xmlns="http://www.w3.org/2000/svg" xmlns:xlink="http://www.w3.org/1999/xlink" x="0px"
	 y="0px" viewBox="0 0 127.2 125.6" style="enable-background:new 0 0 127.2 125.6;" xml:space="preserve">
<style type="text/css">
	.st0{fill:#72B12D;}
	.st1{fill:#F3E100;}
	.st2{fill:#F6AA00;}
	.st3{fill:#00B5ED;}
</style>
<title>アセット 1</title>
<g>
	<g>
		<g>
			<g>
				<path class="st0" d="M96.6,77v-2v-2.3h7.1c0.3,0,0.5,0,0.8,0l0,0c0.8,0,1.5-0.3,2.5-0.3v2.8v2.3c-1-0.3-2-0.3-3.3-0.3L96.6,77z"
					/>
				<path class="st0" d="M96.3,52.9v-1.5v-2.3h7.1c0.3,0,0.5,0,0.8,0l0,0c0.8,0,1.8-0.3,2.5-0.3v2.5v1.8c-1-0.3-2-0.3-3.3-0.3H96.3z
					"/>
				<path class="st0" d="M101.4,21.7c0.5,0.3,1,0.3,1.5,0.3h4.6v2.3V29c-1.3-0.3-2.5-0.5-3.8-0.5h-2.3v-5.6L101.4,21.7L101.4,21.7z"
					/>
			</g>
			<path class="st1" d="M115.9,19.9h-11.7c-5.3,0-9.9-4.6-9.6-9.9l0,0c0-5.3,4.6-9.9,9.9-9.6h11.7c5.3,0,9.9,4.6,9.6,9.9l0,0
				C125.8,15.6,121.4,19.9,115.9,19.9z"/>
			<path class="st0" d="M104.5,46.3H8.6C4.5,46.3,1,43,1,38.7l0,0c0-4.1,3.3-7.6,7.6-7.6h96.1c4.1,0,7.6,3.3,7.6,7.6l0,0
				C112.1,43,108.8,46.3,104.5,46.3z"/>
			<path class="st2" d="M104.5,70.4h-91c-4.1,0-7.6-3.3-7.6-7.6l0,0c0-4.1,3.3-7.6,7.6-7.6h91c4.1,0,7.6,3.3,7.6,7.6l0,0
				C112.1,67.1,108.8,70.4,104.5,70.4z"/>
			<path class="st1" d="M104.5,94.7h-86c-4.1,0-7.6-3.3-7.6-7.6l0,0c0-4.1,3.3-7.6,7.6-7.6h86c4.1,0,7.6,3.3,7.6,7.6l0,0
				C112.1,91.4,108.8,94.7,104.5,94.7z"/>
		</g>
		<rect x="16" y="48.8" class="st0" width="10.4" height="4.1"/>
		<rect x="16" y="72.9" class="st0" width="10.4" height="4.1"/>
	</g>
	<path class="st3" d="M91.5,97c-6.1,0-11.2,3.8-13.2,9.1H42.1c-2-5.3-7.4-9.1-13.2-9.1c-7.9,0-14.2,6.3-14.2,14.2
		s6.3,14.2,14.2,14.2c7.6,0,13.9-6.1,14.2-13.7h34.2c0.3,7.6,6.6,13.7,14.2,13.7c7.9,0,14.2-6.3,14.2-14.2S99.4,97,91.5,97z"/>
</g>
</svg>
